<?xml version="1.0" encoding="UTF-8"?>
<svg width="49px" height="12px" viewBox="0 0 49 12" version="1.1" xmlns="http://www.w3.org/2000/svg" xmlns:xlink="http://www.w3.org/1999/xlink">
    <!-- Generator: Sketch 52.5 (67469) - http://www.bohemiancoding.com/sketch -->
    <title>Artboard</title>
    <desc>Created with Sketch.</desc>
    <g id="Artboard" stroke="none" stroke-width="1" fill="none" fill-rule="evenodd">
        <g id="Group" fill="#333333">
            <path d="M0,2.25503356 L0,0 C1.71285491,0 3.0646466,0.769567248 4.05541562,2.30872483 L8.41309824,9.12751678 C8.68178136,9.57494631 9.21074332,9.79865772 10,9.79865772 L10,12 C8.40469395,12 7.32158136,11.5525772 6.75062972,10.6577181 C5.92778766,9.36912107 5.10075982,8.08054336 4.26952141,6.79194631 C3.438283,5.50334926 2.61965139,4.21477154 1.81360202,2.9261745 C1.49454081,2.47874497 0.890012846,2.25503356 0,2.25503356 Z" id="Path"></path>
            <path d="M19.0345964,12 C17.7166326,12 16.6886363,11.6409127 15.9505766,10.9227273 C15.2125169,10.2045419 14.5623312,9.30000545 14,8.20909091 L17.9011532,2.29090909 C18.9028057,0.763628727 20.2690743,0 22,0 C23.7309257,0 25.0971943,0.763628727 26.0988468,2.29090909 L30,8.20909091 C29.4200959,9.30000545 28.7567308,10.2045419 28.0098847,10.9227273 C27.2630386,11.6409127 26.2482217,12 24.9654036,12 L19.0345964,12 Z M20.247117,2.91818182 C18.9291532,4.91819182 17.7166447,6.75453709 16.6095552,8.42727273 C17.1543135,9.22727673 17.6902774,9.62727273 18.2174629,9.62727273 L25.7825371,9.62727273 C26.2921497,9.62727273 26.8281136,9.22727673 27.3904448,8.42727273 C26.2657824,6.75453709 25.0532739,4.91819182 23.752883,2.91818182 C23.4365717,2.481816 22.8478901,2.26363636 21.9868204,2.26363636 C21.1257508,2.26363636 20.5458554,2.481816 20.247117,2.91818182 Z" id="Combined-Shape"></path>
            <path d="M43.3338954,2.88539326 C43.0101164,2.43595281 42.3625681,2.21123596 41.391231,2.21123596 C40.419894,2.21123596 39.7813394,2.43595281 39.4755481,2.88539326 C38.82799,3.82022939 38.1894354,4.75505151 37.5598651,5.68988764 C36.9302948,6.62472378 36.3007339,7.55055721 35.6711636,8.46741573 C36.228783,9.25843092 36.7684066,9.65393258 37.2900506,9.65393258 L45.4924115,9.65393258 C46.0320432,9.65393258 46.5806605,9.24944225 47.1382799,8.44044944 L49,9.70786517 C47.9746998,11.2359627 46.5267097,12 44.6559865,12 L38.1264755,12 C36.5795313,12 35.3653782,11.4157362 34.4839798,10.247191 C33.6025813,9.07864584 33.1079263,8.41348396 33,8.25168539 L37.074199,2.26516854 C38.0994992,0.755048629 39.5429924,0 41.4047218,0 C43.2664511,0 44.718938,0.755048629 45.762226,2.26516854 L46.1939292,2.88539326 L43.3338954,2.88539326 Z" id="Path"></path>
        </g>
    </g>
</svg>