<?xml version="1.0" encoding="UTF-8"?>
<svg width="334px" height="130px" viewBox="0 0 334 130" version="1.1" xmlns="http://www.w3.org/2000/svg" xmlns:xlink="http://www.w3.org/1999/xlink">
    <!-- Generator: Sketch 52.5 (67469) - http://www.bohemiancoding.com/sketch -->
    <title>logo</title>
    <desc>Created with Sketch.</desc>
    <defs>
        <linearGradient x1="101.999998%" y1="100.999999%" x2="0%" y2="6.24500451e-15%" id="linearGradient-1">
            <stop stop-color="#3023AE" offset="0%"></stop>
            <stop stop-color="#C86DD7" offset="100%"></stop>
        </linearGradient>
    </defs>
    <g id="logo" stroke="none" stroke-width="1" fill="none" fill-rule="evenodd">
        <path d="M16,0 L318,0 C326.836556,-1.623249e-15 334,7.163444 334,16 L334,114 C334,122.836556 326.836556,130 318,130 L16,130 C7.163444,130 1.082166e-15,122.836556 0,114 L0,16 C-1.082166e-15,7.163444 7.163444,1.623249e-15 16,0 Z M32,44.2147651 C37.1620745,44.2147651 40.6683367,45.4265352 42.5188917,47.8501119 C47.193978,54.8300125 51.9420414,61.8098085 56.7632242,68.7897092 C61.584407,75.7696098 66.3811684,82.7494058 71.1536524,89.7293065 C74.4651719,94.5764597 80.7472249,97 90,97 L90,85.0760626 C85.4223113,85.0760626 82.3543319,83.8642925 80.7959698,81.4407159 L55.5214106,44.5055928 C49.7749503,36.1684893 41.9345585,32 32,32 L32,44.2147651 Z M136.004942,98 L168.995058,98 C176.130733,98 181.775652,96.0848676 185.929984,92.2545455 C190.084315,88.4242233 193.774284,83.6000291 197,77.7818182 L175.299835,46.2181818 C169.728143,38.0726865 162.128274,34 152.5,34 C142.871726,34 135.271857,38.0726865 129.700165,46.2181818 L108,77.7818182 C111.127967,83.6000291 114.744625,88.4242233 118.850082,92.2545455 C122.955539,96.0848676 128.673769,98 136.004942,98 Z M142.749588,49.5636364 C144.411321,47.236352 147.636989,46.0727273 152.426689,46.0727273 C157.216389,46.0727273 160.49093,47.236352 162.250412,49.5636364 C169.483836,60.2303564 176.228415,70.0241978 182.484349,78.9454545 C179.356382,83.2121425 176.375083,85.3454545 173.540362,85.3454545 L131.459638,85.3454545 C128.527168,85.3454545 125.545869,83.2121425 122.515651,78.9454545 C128.673836,70.0241978 135.418415,60.2303564 142.749588,49.5636364 Z M271.190556,48.6292135 L286.74199,48.6292135 L284.394604,45.2696629 C278.721725,37.0898467 270.823828,33 260.700675,33 C250.577521,33 242.728527,37.0898467 237.153457,45.2696629 L215,77.6966292 C215.586849,78.5730381 218.276536,82.1759983 223.06914,88.505618 C227.861744,94.8352376 234.463702,98 242.875211,98 L278.379427,98 C288.551484,98 296.42493,93.8614646 302,85.5842697 L291.876897,78.7191011 C288.844842,83.1011455 285.861735,85.2921348 282.927487,85.2921348 L238.32715,85.2921348 C235.490711,85.2921348 232.556508,83.1498342 229.524452,78.8651685 C232.947741,73.8988516 236.370978,68.8839204 239.794266,63.8202247 C243.217555,58.756529 246.689696,53.6929092 250.210793,48.6292135 C251.873533,46.1947444 255.345673,44.9775281 260.627319,44.9775281 C265.908964,44.9775281 269.430008,46.1947444 271.190556,48.6292135 Z" id="Combined-Shape" fill="url(#linearGradient-1)"></path>
    </g>
</svg>